<svg width="16" height="16" viewBox="0 0 16 16" fill="none" xmlns="http://www.w3.org/2000/svg">
<path d="M8 4V14.6667" stroke="#1B6FB8" stroke-linecap="round" stroke-linejoin="round"/>
<path d="M12.6667 8.66667L14 8C14 9.5913 13.3679 11.1174 12.2426 12.2426C11.1174 13.3679 9.5913 14 8 14C6.4087 14 4.88258 13.3679 3.75736 12.2426C2.63214 11.1174 2 9.5913 2 8L3.33333 8.66667" stroke="#1B6FB8" stroke-linecap="round" stroke-linejoin="round"/>
<path d="M6 7.33334H10" stroke="#1B6FB8" stroke-linecap="round" stroke-linejoin="round"/>
<path d="M7.99984 4.00001C8.73622 4.00001 9.33317 3.40306 9.33317 2.66668C9.33317 1.9303 8.73622 1.33334 7.99984 1.33334C7.26346 1.33334 6.6665 1.9303 6.6665 2.66668C6.6665 3.40306 7.26346 4.00001 7.99984 4.00001Z" stroke="#1B6FB8" stroke-linecap="round" stroke-linejoin="round"/>
</svg>
